<svg xmlns="http://www.w3.org/2000/svg" width="613.333" height="613.333" preserveAspectRatio="xMidYMid meet" version="1.0" viewBox="0 0 460 460"><metadata>Created by potrace 1.11, written by Peter Selinger 2001-2013</metadata><g fill="#000" stroke="none"><path d="M2362 4352 c-16 -26 -45 -72 -63 -102 -18 -30 -37 -56 -41 -58 -4 -2 -8 -8 -8 -13 0 -9 -69 -119 -81 -129 -3 -3 -8 -10 -10 -15 -4 -9 -61 -101 -169 -270 -19 -30 -68 -108 -109 -172 -41 -65 -98 -154 -127 -198 -28 -44 -100 -156 -159 -250 -59 -93 -127 -199 -150 -235 -177 -275 -302 -473 -314 -497 -8 -15 -17 -30 -21 -33 -10 -8 -53 -81 -49 -84 4 -4 162 -95 239 -138 25 -14 105 -60 178 -102 73 -42 135 -76 138 -76 3 0 18 -9 33 -19 14 -11 47 -30 71 -44 25 -13 90 -50 145 -82 55 -31 118 -67 140 -80 22 -12 69 -40 105 -60 36 -21 83 -48 105 -60 79 -44 121 -67 153 -87 l33 -20 37 24 c20 14 82 50 137 80 118 66 112 62 375 213 352 202 392 225 400 225 5 0 10 3 12 8 2 4 20 16 41 27 34 18 327 185 335 191 2 1 -5 15 -16 31 -32 48 -115 177 -127 198 -6 11 -36 60 -68 108 -31 48 -57 90 -57 93 0 3 -5 10 -11 17 -5 7 -29 41 -51 77 -23 36 -56 88 -73 115 -18 28 -57 89 -89 137 -31 48 -56 89 -56 92 0 2 -25 41 -55 86 -30 45 -55 84 -55 87 0 3 -15 26 -33 52 -18 25 -36 53 -40 61 -4 8 -76 123 -161 255 -85 132 -205 320 -268 418 -62 98 -121 190 -131 205 -9 15 -20 35 -23 44 -12 33 -32 26 -62 -20z" transform="translate(0.000000,460.000000) scale(0.100000,-0.100000)"/><path d="M1070 1995 c0 -5 48 -72 93 -130 16 -20 77 -104 178 -240 115 -157 219 -298 359 -488 52 -70 100 -135 105 -144 6 -10 15 -22 20 -29 6 -6 44 -57 85 -113 41 -56 111 -150 155 -209 44 -59 91 -123 105 -142 13 -19 28 -39 32 -45 5 -5 27 -35 49 -65 56 -77 69 -94 111 -151 l36 -49 123 168 c68 92 132 179 143 193 12 15 29 37 38 50 9 13 77 105 150 204 73 100 153 209 178 243 25 35 53 73 62 84 10 11 37 47 60 80 24 33 54 74 68 93 14 18 32 43 40 55 8 12 26 37 40 55 14 17 33 43 43 56 46 63 216 293 275 373 37 49 72 96 77 106 6 10 17 25 24 34 23 28 2 18 -138 -63 -75 -43 -153 -88 -174 -100 -21 -12 -71 -40 -110 -63 -40 -22 -137 -78 -217 -123 -80 -45 -170 -97 -200 -115 -30 -19 -69 -40 -85 -49 -26 -14 -124 -70 -303 -173 -26 -15 -54 -31 -62 -34 -8 -4 -17 -11 -20 -16 -3 -4 -68 28 -145 72 -76 44 -140 80 -141 80 -1 0 -52 29 -113 65 -60 36 -112 65 -114 65 -3 0 -35 18 -71 40 -36 22 -70 40 -76 40 -5 0 -10 5 -10 10 0 6 -4 10 -10 10 -9 0 -245 131 -265 147 -5 5 -75 45 -155 89 -80 45 -166 94 -192 108 -27 15 -48 25 -48 21z" transform="translate(0.000000,460.000000) scale(0.100000,-0.100000)"/></g></svg>